<svg xmlns="http://www.w3.org/2000/svg" xmlns:xlink="http://www.w3.org/1999/xlink" width="200" zoomAndPan="magnify" viewBox="0 0 150 37.5" height="50" preserveAspectRatio="xMidYMid meet" version="1.0"><defs><clipPath id="eefc4357b7"><path d="M 0.988281 0 L 57.238281 0 L 57.238281 37 L 0.988281 37 Z M 0.988281 0 " clip-rule="nonzero"/></clipPath><clipPath id="64d36e32e7"><path d="M 143 18 L 149.011719 18 L 149.011719 22 L 143 22 Z M 143 18 " clip-rule="nonzero"/></clipPath></defs><g clip-path="url(#eefc4357b7)"><path fill="#6e4231" d="M 57.484375 10.632812 C 57.484375 17.550781 51.566406 21.25 45.28125 21.25 L 39.679688 21.25 L 39.679688 30.917969 C 39.679688 34.773438 39.996094 36.726562 43.007812 36.726562 L 43.007812 36.992188 L 30.148438 36.992188 C 27.875 36.992188 25.605469 36.359375 24.175781 34.667969 C 19.582031 29.4375 18.945312 19.03125 13.507812 18.714844 L 9.761719 18.714844 L 9.761719 18.449219 L 13.929688 18.449219 C 17.257812 18.449219 21.589844 16.019531 21.589844 9.363281 C 21.589844 2.707031 16.992188 0.277344 13.929688 0.277344 L 12.238281 0.277344 C 9.230469 0.277344 8.964844 2.179688 8.910156 6.089844 L 8.910156 9.953125 C 8.910156 11.222656 8.398438 12.371094 7.566406 13.203125 C 6.734375 14.035156 5.585938 14.546875 4.316406 14.546875 L 4.316406 6.089844 C 4.261719 2.179688 4 0.277344 0.988281 0.277344 L 0.988281 0.0117188 L 15.566406 0.0117188 C 20.691406 0.0117188 26.714844 2.707031 26.714844 9.363281 C 26.714844 14.910156 22.644531 17.710938 17.945312 18.449219 C 23.121094 20.035156 24.390625 26.269531 27.71875 31.234375 C 28.839844 32.902344 30.179688 34.378906 31.6875 35.382812 C 32.933594 36.210938 34.617188 35.484375 34.863281 34.007812 C 35 33.171875 35.035156 32.140625 35.035156 30.917969 L 35.035156 25.523438 C 35.035156 24.238281 35.554688 23.074219 36.394531 22.234375 C 37.238281 21.394531 38.398438 20.871094 39.683594 20.871094 L 44.699219 20.984375 C 48.238281 20.984375 52.359375 17.65625 52.359375 10.632812 C 52.359375 3.605469 48.238281 0.277344 44.699219 0.277344 L 43.011719 0.277344 C 40 0.277344 39.683594 2.179688 39.683594 6.085938 L 39.683594 7.316406 C 39.683594 8.601562 39.160156 9.761719 38.320312 10.605469 C 37.480469 11.445312 36.316406 11.964844 35.035156 11.964844 L 35.035156 6.089844 C 35.035156 2.179688 34.714844 0.277344 31.707031 0.277344 L 31.707031 0.0117188 L 45.28125 0.0117188 C 51.566406 0.0117188 57.484375 3.710938 57.484375 10.632812 Z M 57.484375 10.632812 " fill-opacity="1" fill-rule="nonzero"/></g><g clip-path="url(#64d36e32e7)"><path stroke-linecap="butt" transform="matrix(0.740132, 0, 0, 0.740132, 145.312494, 18.50329)" fill="none" stroke-linejoin="miter" d="M 0.000008125 2.001111 L 76.000011 2.001111 " stroke="#f7ffff" stroke-width="4" stroke-opacity="1" stroke-miterlimit="4"/></g></svg>